<svg width="16" height="16" viewBox="0 0 16 16" fill="none" xmlns="http://www.w3.org/2000/svg">
<g id="alert-02">
<path id="Vector" fill-rule="evenodd" clip-rule="evenodd" d="M6.90792 1.34341C7.61752 1.10786 8.38232 1.10786 9.09192 1.34341C9.79865 1.57799 10.3535 2.13435 10.9109 2.91605C11.4665 3.69515 12.0805 4.78145 12.8718 6.18175L12.9029 6.23672C13.6944 7.63721 14.3083 8.72348 14.6909 9.60441C15.0753 10.4896 15.2667 11.2539 15.114 11.9881C14.9601 12.7275 14.5809 13.3997 14.0285 13.9079C13.4774 14.4147 12.7271 14.6286 11.7823 14.7313C10.8429 14.8334 9.61405 14.8334 8.03245 14.8334H7.96745C6.3858 14.8334 5.15695 14.8334 4.21753 14.7313C3.27277 14.6286 2.52245 14.4147 1.9714 13.9079C1.419 13.3997 1.03971 12.7275 0.885886 11.9881C0.733119 11.2539 0.924586 10.4896 1.30902 9.60441C1.6916 8.72348 2.30549 7.63721 3.09697 6.23671L3.12804 6.18175C3.91939 4.78146 4.53331 3.69515 5.0889 2.91605C5.64634 2.13435 6.20121 1.57799 6.90792 1.34341ZM7.33325 11.3334C7.33325 10.9652 7.63039 10.6667 7.99692 10.6667H8.00292C8.36945 10.6667 8.66659 10.9652 8.66659 11.3334C8.66659 11.7016 8.36945 12.0001 8.00292 12.0001H7.99692C7.63039 12.0001 7.33325 11.7016 7.33325 11.3334ZM7.33325 8.66675C7.33325 9.03495 7.63172 9.33341 7.99992 9.33341C8.36812 9.33341 8.66659 9.03495 8.66659 8.66675V6.00008C8.66659 5.63189 8.36812 5.33341 7.99992 5.33341C7.63172 5.33341 7.33325 5.63189 7.33325 6.00008V8.66675Z" fill="#EA69B6"/>
</g>
</svg>
