<svg width="24" height="24" viewBox="0 0 24 24" fill="none" xmlns="http://www.w3.org/2000/svg">
<g id="arrow-data-transfer-vertical-sharp">
<path id="Vector" d="M14.5945 3.58594C14.9559 3.42558 15.3779 3.49327 15.6711 3.75863L19.6711 7.37932C19.9777 7.65684 20.0818 8.09443 19.9331 8.4803C19.7844 8.86617 19.4135 9.12071 19 9.12071H16V19.5C16 20.0523 15.5523 20.5 15 20.5C14.4477 20.5 14 20.0523 14 19.5V4.50002C14 4.10459 14.233 3.7463 14.5945 3.58594Z" fill="#EBFE64"/>
<path id="Vector_2" d="M9.00003 3.5C9.55231 3.5 10 3.94772 10 4.5V19.5C10 19.9045 9.75639 20.2691 9.38271 20.4239C9.00904 20.5787 8.57892 20.4931 8.29292 20.2071L4.29292 16.2071C4.00692 15.9211 3.92137 15.491 4.07615 15.1173C4.23093 14.7436 4.59557 14.5 5.00003 14.5H8.00003V4.5C8.00003 3.94772 8.44774 3.5 9.00003 3.5Z" fill="#EBFE64"/>
</g>
</svg>
