<svg width="16" height="16" viewBox="0 0 16 16" fill="none" xmlns="http://www.w3.org/2000/svg">
<g id="arrow-left-02-round">
<path id="Vector" fill-rule="evenodd" clip-rule="evenodd" d="M2 7.99967C2 7.63147 2.29848 7.33301 2.66667 7.33301H13.3334C13.7016 7.33301 14 7.63147 14 7.99967C14 8.36781 13.7016 8.66634 13.3334 8.66634H2.66667C2.29848 8.66634 2 8.36781 2 7.99967Z" fill="white"/>
<path id="Vector_2" d="M3.35191 8.00003C3.41411 8.10316 3.5445 8.28856 3.68709 8.44996C3.97091 8.77116 4.36207 9.1381 4.7704 9.49263C5.17542 9.8443 5.5824 10.1709 5.88931 10.4104C6.04242 10.5299 6.30663 10.7295 6.39539 10.7965C6.69182 11.0149 6.75515 11.4322 6.5368 11.7286C6.31846 12.0251 5.90113 12.0884 5.60467 11.8701L5.60219 11.8682C5.50593 11.7955 5.22685 11.5847 5.06902 11.4616C4.75093 11.2133 4.32457 10.8713 3.89626 10.4994C3.47126 10.1304 3.02908 9.71896 2.68791 9.33283C2.518 9.1405 2.35904 8.93883 2.23895 8.73963C2.12989 8.5587 2.00001 8.2955 2 8.00003C2.00001 7.70456 2.12989 7.4413 2.23895 7.26043C2.35904 7.06116 2.518 6.8595 2.68791 6.66716C3.02908 6.28107 3.47126 5.86956 3.89626 5.50056C4.32457 5.12869 4.75093 4.78668 5.06902 4.53845C5.22685 4.41528 5.50575 4.20462 5.60201 4.13192L5.60467 4.12991C5.90113 3.91157 6.31846 3.97491 6.5368 4.27138C6.75515 4.56782 6.69182 4.98512 6.39539 5.20347C6.30663 5.27051 6.04242 5.4701 5.88931 5.58958C5.5824 5.8291 5.17542 6.15572 4.7704 6.50737C4.36207 6.8619 3.97091 7.22883 3.68709 7.55003C3.5445 7.71143 3.41411 7.89683 3.35191 8.00003Z" fill="white"/>
</g>
</svg>
