<svg width="178" height="60" viewBox="0 0 178 60" fill="none" xmlns="http://www.w3.org/2000/svg">
<g id="chart line">
<path id="Line background" opacity="0.1" d="M4.98867 15.4628L1 16.7603V60H177V1L173.261 3.15484H169.272L167.402 5.17255H164.909C164.245 5.50883 162.865 6.1814 162.666 6.1814C162.466 6.1814 161.17 6.58494 160.547 6.78671L155.187 7.39202L152.071 8.1991L147.085 7.39202L144.467 6.78671L140.728 8.1991H136.864L133.623 6.78671C132.377 6.58494 129.834 6.1814 129.635 6.1814C129.435 6.1814 127.806 5.77786 127.017 5.57609H125.023L120.286 6.1814L116.173 6.78671L114.303 8.1991L108.694 8.80441L105.827 9.40973L102.586 10.4186L99.4703 12.8398H98.0992L94.3598 12.2345L90.745 10.4186L87.6289 9.40973H85.7592L82.5184 8.80441L77.9065 9.40973H73.5439L69.1813 10.4186L64.8187 11.6292L61.5779 12.8398L58.0878 13.4451L53.3513 12.8398L49.6119 13.4451L45.8725 14.0504L42.3824 13.4451L37.6459 14.8575L33.6572 14.0504L29.6686 14.8575H25.8045L21.6912 15.4628H17.4533L13.2153 16.0681L9.10198 14.8575L4.98867 15.4628Z" fill="url(#paint0_linear_789_269658)"/>
<path id="Line" d="M1 16.7603L4.98867 15.4628L9.10198 14.8575L13.2153 16.0681L17.4533 15.4628H21.6912L25.8045 14.8575H29.6686L33.6572 14.0504L37.6459 14.8575L42.3824 13.4451L45.8725 14.0504L49.6119 13.4451L53.3513 12.8398L58.0878 13.4451L61.5779 12.8398L64.8187 11.6292L69.1813 10.4186L73.5439 9.40972H77.9065L82.5184 8.80441L85.7592 9.40972H87.6289L90.745 10.4186L94.3598 12.2345L98.0992 12.8398H99.4703L102.586 10.4186L105.827 9.40972L108.694 8.80441L114.303 8.1991L116.173 6.78671L120.286 6.1814L125.023 5.57609H127.017C127.806 5.77786 129.435 6.1814 129.635 6.1814C129.834 6.1814 132.377 6.58494 133.623 6.78671L136.864 8.1991H140.728L144.467 6.78671L147.085 7.39202L152.071 8.1991L155.187 7.39202L160.547 6.78671C161.17 6.58494 162.466 6.1814 162.666 6.1814C162.865 6.1814 164.245 5.50883 164.909 5.17255H167.402L169.272 3.15484H173.261L177 1" stroke="#EBFE64" stroke-width="1.5" stroke-linecap="round" stroke-linejoin="round"/>
</g>
<defs>
<linearGradient id="paint0_linear_789_269658" x1="89" y1="1" x2="89" y2="57.3733" gradientUnits="userSpaceOnUse">
<stop stop-color="#EBFE64"/>
<stop offset="1" stop-color="#EBFE64" stop-opacity="0"/>
</linearGradient>
</defs>
</svg>
