<svg width="16" height="16" viewBox="0 0 16 16" fill="none" xmlns="http://www.w3.org/2000/svg">
<g id="circle-arrow-reload-01-round" clip-path="url(#clip0_939_87761)">
<path id="Vector" fill-rule="evenodd" clip-rule="evenodd" d="M7.99992 0.833313C4.04188 0.833313 0.833252 4.04194 0.833252 7.99998C0.833252 11.958 4.04188 15.1666 7.99992 15.1666C11.958 15.1666 15.1666 11.958 15.1666 7.99998C15.1666 4.04194 11.958 0.833313 7.99992 0.833313ZM9.16878 4.44862C9.47325 4.21043 9.91318 4.26419 10.1514 4.56869L10.7617 5.34882C10.8587 5.47289 10.9618 5.61779 11.0313 5.7706C11.0916 5.90311 11.2042 6.21041 11.0459 6.54173C10.8863 6.87598 10.5733 6.97998 10.4299 7.01525C10.2661 7.05551 10.0881 7.06365 9.93158 7.06365H6.40004C6.21483 7.06365 6.13005 7.08691 6.09754 7.10045L6.09193 7.10291C6.08288 7.12198 6.06822 7.16451 6.05619 7.25225C6.042 7.35578 6.03339 7.50631 6.03339 7.72725C6.03339 8.11385 5.71998 8.42725 5.33338 8.42725C4.94678 8.42725 4.63339 8.11385 4.63339 7.72725C4.63339 7.33231 4.64043 6.78725 4.90589 6.3578C5.23451 5.82615 5.80091 5.66361 6.40004 5.66361H8.90012V5.00967C8.89732 4.7991 8.98952 4.58883 9.16878 4.44862ZM9.96672 8.42725C9.96672 8.04065 10.2801 7.72725 10.6667 7.72725C11.0533 7.72725 11.3667 8.04065 11.3667 8.42725C11.3667 8.82218 11.3597 9.21265 11.0942 9.64211C10.7656 10.1738 10.1992 10.3363 9.60005 10.3363H7.09998V10.9902C7.10278 11.2008 7.01058 11.4111 6.83132 11.5513C6.52682 11.7895 6.08688 11.7357 5.84869 11.4312L5.23846 10.6511C5.14141 10.527 5.03829 10.3821 4.96878 10.2293C4.9085 10.0968 4.7959 9.78951 4.95416 9.45818C5.11383 9.12391 5.42681 9.01991 5.5702 8.98465C5.73398 8.94438 5.91198 8.93631 6.06854 8.93631H9.60005C9.78525 8.93631 9.87005 8.91298 9.90252 8.89945L9.90819 8.89698C9.91718 8.87791 9.93185 8.83538 9.94392 8.74765C9.94685 8.72625 9.94952 8.70938 9.95198 8.69425C9.96132 8.63618 9.96672 8.60245 9.96672 8.42725Z" fill="#8CEA69"/>
</g>
<defs>
<clipPath id="clip0_939_87761">
<rect width="16" height="16" fill="white"/>
</clipPath>
</defs>
</svg>
