<svg width="68" height="68" viewBox="0 0 68 68" fill="none" xmlns="http://www.w3.org/2000/svg">
<g id="Loading circle">
<g id="Group 1">
<path id="Line" d="M63.9063 34C63.9063 37.9273 63.1327 41.8162 61.6298 45.4446C60.1268 49.073 57.924 52.3699 55.1469 55.1469C52.3699 57.924 49.073 60.1268 45.4446 61.6298C41.8162 63.1327 37.9273 63.9063 34 63.9062C30.0727 63.9062 26.1838 63.1327 22.5554 61.6298C18.927 60.1268 15.6301 57.924 12.8531 55.1469C10.076 52.3699 7.87315 49.073 6.37022 45.4446C4.8673 41.8162 4.09375 37.9273 4.09375 34C4.09375 30.0726 4.8673 26.1838 6.37023 22.5554C7.87316 18.927 10.076 15.6301 12.8531 12.8531C15.6301 10.076 18.927 7.87315 22.5554 6.37022C26.1838 4.86729 30.0727 4.09375 34 4.09375C37.9274 4.09375 41.8162 4.8673 45.4446 6.37023C49.073 7.87317 52.3699 10.076 55.1469 12.8531C57.924 15.6302 60.1269 18.927 61.6298 22.5554C63.1327 26.1838 63.9063 30.0727 63.9062 34L63.9063 34Z" stroke="url(#paint0_angular_789_270378)" stroke-width="8" stroke-linecap="round" stroke-linejoin="round" stroke-dasharray="0.1 8"/>
</g>
</g>
<defs>
<radialGradient id="paint0_angular_789_270378" cx="0" cy="0" r="1" gradientUnits="userSpaceOnUse" gradientTransform="translate(34 34) rotate(169.077) scale(29.9329)">
<stop stop-color="#EBFE64"/>
<stop offset="1" stop-color="#4A4D35"/>
</radialGradient>
</defs>
</svg>
