<svg width="16" height="16" viewBox="0 0 16 16" fill="none" xmlns="http://www.w3.org/2000/svg">
<g id="search" clip-path="url(#clip0_939_87244)">
<path id="Vector" fill-rule="evenodd" clip-rule="evenodd" d="M11.1953 11.1953C11.4556 10.9349 11.8777 10.9349 12.138 11.1953L15.1381 14.1953C15.3984 14.4556 15.3984 14.8777 15.1381 15.1381C14.8777 15.3984 14.4556 15.3984 14.1953 15.1381L11.1953 12.138C10.9349 11.8777 10.9349 11.4556 11.1953 11.1953Z" fill="#797979"/>
<path id="Vector_2" fill-rule="evenodd" clip-rule="evenodd" d="M0.666748 7.33335C0.666748 3.65145 3.65151 0.666687 7.33341 0.666687C11.0153 0.666687 14.0001 3.65145 14.0001 7.33335C14.0001 11.0152 11.0153 14 7.33341 14C3.65151 14 0.666748 11.0152 0.666748 7.33335ZM7.33341 2.00002C4.38789 2.00002 2.00008 4.38783 2.00008 7.33335C2.00008 10.2789 4.38789 12.6667 7.33341 12.6667C10.2789 12.6667 12.6667 10.2789 12.6667 7.33335C12.6667 4.38783 10.2789 2.00002 7.33341 2.00002Z" fill="#797979"/>
</g>
<defs>
<clipPath id="clip0_939_87244">
<rect width="16" height="16" fill="white"/>
</clipPath>
</defs>
</svg>
