<svg xmlns="http://www.w3.org/2000/svg" width="16" height="16" viewBox="0 0 16 16" fill="none">
  <g clip-path="url(#clip0_939_87475)">
    <path d="M1.66675 3.99998C1.66675 2.97302 1.66675 2.45954 1.8979 2.08233C2.02724 1.87127 2.2047 1.69381 2.41577 1.56447C2.79297 1.33331 3.30645 1.33331 4.33341 1.33331C5.36037 1.33331 5.87385 1.33331 6.25106 1.56447C6.46213 1.69381 6.63959 1.87127 6.76895 2.08233C7.00008 2.45954 7.00008 2.97302 7.00008 3.99998C7.00008 5.02694 7.00008 5.54042 6.76895 5.91763C6.63959 6.12869 6.46213 6.30615 6.25106 6.43549C5.87385 6.66665 5.36037 6.66665 4.33341 6.66665C3.30645 6.66665 2.79297 6.66665 2.41577 6.43549C2.2047 6.30615 2.02724 6.12869 1.8979 5.91763C1.66675 5.54042 1.66675 5.02694 1.66675 3.99998Z" stroke="#EBFE64" stroke-width="1.5"/>
    <path d="M2.52103 9.85447C3.21893 9.15654 3.56789 8.8076 3.98132 8.70834C4.21265 8.6528 4.45385 8.6528 4.68519 8.70834C5.09862 8.8076 5.44757 9.15654 6.14548 9.85447C6.84339 10.5523 7.19232 10.9013 7.29159 11.3147C7.34712 11.5461 7.34712 11.7873 7.29159 12.0186C7.19232 12.4321 6.84339 12.781 6.14548 13.4789C5.44757 14.1768 5.09862 14.5257 4.68519 14.625C4.45385 14.6805 4.21265 14.6805 3.98132 14.625C3.56789 14.5257 3.21893 14.1768 2.52103 13.4789C1.82312 12.781 1.47417 12.4321 1.37491 12.0186C1.31937 11.7873 1.31937 11.5461 1.37491 11.3147C1.47417 10.9013 1.82312 10.5523 2.52103 9.85447Z" stroke="#EBFE64" stroke-width="1.5"/>
    <path d="M9.33325 12C9.33325 10.973 9.33325 10.4595 9.56439 10.0823C9.69372 9.87125 9.87119 9.69378 10.0823 9.56445C10.4595 9.33331 10.973 9.33331 11.9999 9.33331C13.0269 9.33331 13.5404 9.33331 13.9176 9.56445C14.1287 9.69378 14.3061 9.87125 14.4355 10.0823C14.6666 10.4595 14.6666 10.973 14.6666 12C14.6666 13.0269 14.6666 13.5404 14.4355 13.9176C14.3061 14.1287 14.1287 14.3062 13.9176 14.4355C13.5404 14.6666 13.0269 14.6666 11.9999 14.6666C10.973 14.6666 10.4595 14.6666 10.0823 14.4355C9.87119 14.3062 9.69372 14.1287 9.56439 13.9176C9.33325 13.5404 9.33325 13.0269 9.33325 12Z" stroke="#EBFE64" stroke-width="1.5"/>
    <path d="M11.9999 1.33331V6.66665M14.6666 3.99998H9.33325" stroke="#EBFE64" stroke-width="1.5" stroke-linecap="round" stroke-linejoin="round"/>
  </g>
  <defs>
    <clipPath id="clip0_939_87475">
      <rect width="16" height="16" fill="white"/>
    </clipPath>
  </defs>
</svg>