<svg width="16" height="16" viewBox="0 0 16 16" fill="none" xmlns="http://www.w3.org/2000/svg">
<g id="resources-add" clip-path="url(#clip0_789_267992)">
<path id="Vector" d="M1.66699 4.00016C1.66699 2.9732 1.66699 2.45972 1.89815 2.08252C2.02749 1.87145 2.20495 1.69399 2.41601 1.56465C2.79322 1.3335 3.3067 1.3335 4.33366 1.3335C5.36062 1.3335 5.8741 1.3335 6.25131 1.56465C6.46237 1.69399 6.63983 1.87145 6.76919 2.08252C7.00033 2.45972 7.00033 2.9732 7.00033 4.00016C7.00033 5.02712 7.00033 5.5406 6.76919 5.91781C6.63983 6.12888 6.46237 6.30634 6.25131 6.43568C5.8741 6.66683 5.36062 6.66683 4.33366 6.66683C3.3067 6.66683 2.79322 6.66683 2.41601 6.43568C2.20495 6.30634 2.02749 6.12888 1.89815 5.91781C1.66699 5.5406 1.66699 5.02712 1.66699 4.00016Z" stroke="#020202" stroke-width="1.5"/>
<path id="Vector_2" d="M2.52078 9.85429C3.21869 9.15635 3.56764 8.80742 3.98108 8.70815C4.21241 8.65262 4.45361 8.65262 4.68494 8.70815C5.09838 8.80742 5.44733 9.15635 6.14524 9.85429C6.84314 10.5522 7.19208 10.9011 7.29134 11.3146C7.34688 11.5459 7.34688 11.7871 7.29134 12.0184C7.19208 12.4319 6.84314 12.7808 6.14524 13.4787C5.44733 14.1766 5.09838 14.5256 4.68495 14.6248C4.45361 14.6804 4.21241 14.6804 3.98108 14.6248C3.56764 14.5256 3.21869 14.1766 2.52078 13.4787C1.82288 12.7808 1.47392 12.4319 1.37466 12.0184C1.31912 11.7871 1.31912 11.5459 1.37466 11.3146C1.47392 10.9011 1.82288 10.5522 2.52078 9.85429Z" stroke="#020202" stroke-width="1.5"/>
<path id="Vector_3" d="M9.33301 12.0002C9.33301 10.9732 9.33301 10.4597 9.56414 10.0825C9.69347 9.87143 9.87094 9.69396 10.082 9.56463C10.4592 9.3335 10.9727 9.3335 11.9997 9.3335C13.0266 9.3335 13.5401 9.3335 13.9173 9.56463C14.1284 9.69396 14.3059 9.87143 14.4352 10.0825C14.6663 10.4597 14.6663 10.9732 14.6663 12.0002C14.6663 13.0271 14.6663 13.5406 14.4352 13.9178C14.3059 14.1289 14.1284 14.3064 13.9173 14.4357C13.5401 14.6668 13.0266 14.6668 11.9997 14.6668C10.9727 14.6668 10.4592 14.6668 10.082 14.4357C9.87094 14.3064 9.69347 14.1289 9.56414 13.9178C9.33301 13.5406 9.33301 13.0271 9.33301 12.0002Z" stroke="#020202" stroke-width="1.5"/>
<path id="Vector_4" d="M11.9997 1.3335V6.66683M14.6663 4.00016H9.33301" stroke="#020202" stroke-width="1.5" stroke-linecap="round" stroke-linejoin="round"/>
</g>
<defs>
<clipPath id="clip0_789_267992">
<rect width="16" height="16" fill="white"/>
</clipPath>
</defs>
</svg>
