<svg width="81" height="80" viewBox="0 0 81 80" fill="none" xmlns="http://www.w3.org/2000/svg">
<g id="resources-add">
<path id="Vector" d="M22.2885 4.16669C24.7523 4.16665 26.7774 4.16662 28.4157 4.32239C30.1181 4.48425 31.6593 4.83179 33.0611 5.69085C34.453 6.54369 35.623 7.71382 36.476 9.10555C37.335 10.5074 37.6823 12.0486 37.8443 13.751C38 15.3893 38 17.4143 38 19.8781V20.1219C38 22.5857 38 24.6108 37.8443 26.2491C37.6823 27.9515 37.335 29.4927 36.476 30.8945C35.623 32.2862 34.453 33.4564 33.0611 34.3094C31.6593 35.1684 30.1181 35.5157 28.4157 35.6777C26.7774 35.8334 24.7524 35.8334 22.2886 35.8334H22.0448C19.581 35.8334 17.5559 35.8334 15.9176 35.6777C14.2152 35.5157 12.674 35.1684 11.2722 34.3094C9.88047 33.4564 8.71034 32.2862 7.8575 30.8945C6.99844 29.4927 6.6509 27.9515 6.48903 26.2491C6.33327 24.6108 6.3333 22.5857 6.33333 20.1219V19.8782C6.3333 17.4144 6.33327 15.3893 6.48903 13.751C6.6509 12.0486 6.99844 10.5074 7.8575 9.10555C8.71034 7.71382 9.88047 6.54369 11.2722 5.69085C12.674 4.83179 14.2152 4.48425 15.9176 4.32239C17.5559 4.16662 19.581 4.16665 22.0448 4.16669H22.2885Z" fill="#252525"/>
<path id="Vector_2" d="M19.8234 41.1107C21.3637 40.741 22.9696 40.741 24.51 41.1107C26.0668 41.4844 27.3637 42.3057 28.6362 43.3574C29.859 44.3677 31.238 45.7467 32.9098 47.4187L33.0812 47.59C34.7533 49.262 36.1323 50.641 37.1427 51.8637C38.1943 53.1364 39.0157 54.4334 39.3893 55.99C39.759 57.5304 39.759 59.1364 39.3893 60.6767C39.0157 62.2334 38.1943 63.5304 37.1427 64.803C36.1323 66.0257 34.7533 67.4047 33.0813 69.0767L32.9099 69.248C31.2381 70.92 29.859 72.299 28.6362 73.3094C27.3637 74.361 26.0668 75.1824 24.51 75.556C22.9697 75.9257 21.3637 75.9257 19.8234 75.556C18.2665 75.1824 16.9696 74.361 15.6971 73.3094C14.4743 72.299 13.0953 70.92 11.4235 69.248L11.2521 69.0767C9.58013 67.4047 8.2011 66.0257 7.1906 64.803C6.1391 63.5304 5.31777 62.2334 4.944 60.6767C4.57423 59.1364 4.57423 57.5304 4.944 55.99C5.31777 54.4334 6.1391 53.1364 7.1906 51.8637C8.2011 50.641 9.58013 49.262 11.2521 47.59L11.3378 47.5044L11.4234 47.4187C13.0953 45.7467 14.4743 44.3677 15.6971 43.3574C16.9696 42.3057 18.2665 41.4844 19.8234 41.1107Z" fill="#252525"/>
<path id="Vector_3" d="M60.622 44.1667C63.0857 44.1667 65.1107 44.1667 66.749 44.3224C68.4514 44.4844 69.9927 44.8317 71.3944 45.6907C72.7864 46.5437 73.9564 47.7137 74.8094 49.1057C75.6684 50.5074 76.0157 52.0487 76.1777 53.751C76.3334 55.3894 76.3334 57.4144 76.3334 59.878V60.122C76.3334 62.5857 76.3334 64.6107 76.1777 66.249C76.0157 67.9514 75.6684 69.4927 74.8094 70.8944C73.9564 72.2864 72.7864 73.4564 71.3944 74.3094C69.9927 75.1684 68.4514 75.5157 66.749 75.6777C65.1107 75.8334 63.0857 75.8334 60.622 75.8334H60.378C57.9144 75.8334 55.8894 75.8334 54.251 75.6777C52.5487 75.5157 51.0074 75.1684 49.6057 74.3094C48.2137 73.4564 47.0437 72.2864 46.1907 70.8944C45.3317 69.4927 44.9844 67.9514 44.8224 66.249C44.6667 64.6107 44.6667 62.5857 44.6667 60.122V59.8784C44.6667 57.4147 44.6667 55.3894 44.8224 53.751C44.9844 52.0487 45.3317 50.5074 46.1907 49.1057C47.0437 47.7137 48.2137 46.5437 49.6057 45.6907C51.0074 44.8317 52.5487 44.4844 54.251 44.3224C55.8894 44.1667 57.9144 44.1667 60.378 44.1667H60.622Z" fill="#252525"/>
<path id="Vector_4" fill-rule="evenodd" clip-rule="evenodd" d="M59.6667 4.16669C61.5077 4.16669 63 5.65909 63 7.50002V17.5H73C74.841 17.5 76.3333 18.9924 76.3333 20.8334C76.3333 22.6743 74.841 24.1667 73 24.1667H63V34.1667C63 36.0077 61.5077 37.5 59.6667 37.5C57.8257 37.5 56.3333 36.0077 56.3333 34.1667V24.1667H46.3333C44.4923 24.1667 43 22.6743 43 20.8334C43 18.9924 44.4923 17.5 46.3333 17.5H56.3333V7.50002C56.3333 5.65909 57.8257 4.16669 59.6667 4.16669Z" fill="#252525"/>
</g>
</svg>
