<svg width="16" height="16" viewBox="0 0 16 16" fill="none" xmlns="http://www.w3.org/2000/svg">
<g id="tick-01">
<path id="Vector" d="M13.2916 4.10144C13.4198 4.44664 13.2438 4.8303 12.8986 4.95838C12.1926 5.22029 11.4182 5.76545 10.6342 6.48574C9.85769 7.19917 9.10936 8.04917 8.45283 8.87364C7.79763 9.69644 7.24203 10.4834 6.85003 11.0652C6.65425 11.3558 6.49985 11.5943 6.39487 11.7594C6.34239 11.842 6.3023 11.9061 6.27559 11.9492L6.2457 11.9976L6.23853 12.0093L6.23693 12.012C6.11447 12.2138 5.89405 12.3364 5.65797 12.3333C5.42184 12.3302 5.20496 12.2025 5.0878 11.9974C4.45497 10.89 3.9322 10.3914 3.61765 10.1712C3.46135 10.0618 3.35501 10.02 3.30824 10.0051C3.2972 10.0016 3.28909 9.99944 3.28399 9.99824C2.93883 9.97297 2.66663 9.68497 2.66663 9.33337C2.66663 8.96517 2.96511 8.66671 3.33329 8.66671C3.41196 8.67197 3.59793 8.69297 3.71251 8.73451C3.89491 8.79257 4.12191 8.89664 4.38227 9.07884C4.75546 9.3401 5.19339 9.7591 5.67056 10.43C5.69447 10.3942 5.71904 10.3576 5.74427 10.3202C6.15005 9.71797 6.72676 8.90084 7.40983 8.04304C8.09156 7.18697 8.88736 6.28003 9.73216 5.50389C10.5695 4.73459 11.4936 4.05752 12.4347 3.70832C12.7799 3.58024 13.1636 3.75625 13.2916 4.10144Z" fill="#020202"/>
</g>
</svg>
