<svg width="15" height="14" viewBox="0 0 15 14" fill="none" xmlns="http://www.w3.org/2000/svg">
<path id="Vector" fill-rule="evenodd" clip-rule="evenodd" d="M6.07467 0.176665C6.78427 -0.0588883 7.54907 -0.0588883 8.25867 0.176665C8.9654 0.411245 9.52027 0.967605 10.0777 1.7493C10.6333 2.5284 11.2472 3.6147 12.0385 5.015L12.0696 5.06997C12.8611 6.47047 13.475 7.55673 13.8576 8.43766C14.242 9.32286 14.4335 10.0871 14.2807 10.8214C14.1269 11.5607 13.7476 12.233 13.1952 12.7411C12.6441 13.248 11.8938 13.4619 10.9491 13.5645C10.0097 13.6667 8.7808 13.6667 7.1992 13.6667H7.1342C5.55255 13.6667 4.32369 13.6667 3.38428 13.5645C2.43951 13.4619 1.68919 13.248 1.13815 12.7411C0.585747 12.233 0.206454 11.5607 0.0526339 10.8214C-0.100133 10.0871 0.0913338 9.32286 0.475767 8.43766C0.858347 7.55673 1.47223 6.47046 2.26372 5.06996L2.29479 5.015C3.08614 3.61471 3.70005 2.5284 4.25565 1.7493C4.81309 0.967605 5.36796 0.411245 6.07467 0.176665ZM6.9546 6.18486C7.11927 6.207 7.34713 6.26626 7.54047 6.4596C7.7338 6.65293 7.79307 6.88073 7.8152 7.04546C7.83353 7.18186 7.8334 7.34053 7.83333 7.47373V7.5V10.1667C7.83333 10.5349 7.53487 10.8333 7.16667 10.8333C6.79847 10.8333 6.5 10.5349 6.5 10.1667V7.5C6.1318 7.5 5.83333 7.20153 5.83333 6.83333C5.83333 6.46513 6.1318 6.16666 6.5 6.16666H6.52627C6.65953 6.1666 6.81813 6.16646 6.9546 6.18486ZM7.1636 3.5C6.79707 3.5 6.49993 3.79848 6.49993 4.16666C6.49993 4.53485 6.79707 4.83333 7.1636 4.83333H7.1696C7.53613 4.83333 7.83327 4.53485 7.83327 4.16666C7.83327 3.79848 7.53613 3.5 7.1696 3.5H7.1636Z" fill="#FFD166"/>
</svg>
