<svg width="120" height="120" viewBox="0 0 120 120" fill="none" xmlns="http://www.w3.org/2000/svg">
<g id="resources-add">
<path id="Vector" d="M12.5 30C12.5 22.2978 12.5 18.4467 14.2337 15.6177C15.2037 14.0346 16.5346 12.7037 18.1177 11.7337C20.9467 10 24.7978 10 32.5 10C40.2022 10 44.0533 10 46.8824 11.7337C48.4654 12.7037 49.7963 14.0346 50.7665 15.6177C52.5 18.4467 52.5 22.2978 52.5 30C52.5 37.7022 52.5 41.5533 50.7665 44.3824C49.7963 45.9654 48.4654 47.2963 46.8824 48.2664C44.0533 50 40.2022 50 32.5 50C24.7978 50 20.9467 50 18.1177 48.2664C16.5346 47.2963 15.2037 45.9654 14.2337 44.3824C12.5 41.5533 12.5 37.7022 12.5 30Z" stroke="#EBFE64" stroke-width="3"/>
<path id="Vector_2" d="M18.9083 73.9084C24.1426 68.6739 26.7598 66.0569 29.8605 65.3124C31.5955 64.8959 33.4045 64.8959 35.1395 65.3124C38.2403 66.0569 40.8574 68.6739 46.0917 73.9084C51.326 79.1424 53.943 81.7594 54.6875 84.8604C55.104 86.5954 55.104 88.4044 54.6875 90.1394C53.943 93.2404 51.326 95.8574 46.0917 101.091C40.8574 106.326 38.2403 108.943 35.1396 109.687C33.4045 110.104 31.5955 110.104 29.8605 109.687C26.7598 108.943 24.1426 106.326 18.9083 101.091C13.674 95.8574 11.0569 93.2404 10.3124 90.1394C9.89586 88.4044 9.89586 86.5954 10.3124 84.8604C11.0569 81.7594 13.674 79.1424 18.9083 73.9084Z" stroke="#EBFE64" stroke-width="3"/>
<path id="Vector_3" d="M70 90C70 82.298 70 78.4465 71.7335 75.6175C72.7035 74.0345 74.0345 72.7035 75.6175 71.7335C78.4465 70 82.298 70 90 70C97.702 70 101.553 70 104.382 71.7335C105.965 72.7035 107.297 74.0345 108.267 75.6175C110 78.4465 110 82.298 110 90C110 97.702 110 101.553 108.267 104.382C107.297 105.965 105.965 107.297 104.382 108.267C101.553 110 97.702 110 90 110C82.298 110 78.4465 110 75.6175 108.267C74.0345 107.297 72.7035 105.965 71.7335 104.382C70 101.553 70 97.702 70 90Z" stroke="#EBFE64" stroke-width="3"/>
<path id="Vector_4" d="M90 10V50M110 30H70" stroke="#EBFE64" stroke-width="3" stroke-linecap="round" stroke-linejoin="round"/>
</g>
</svg>
