<svg width="16" height="16" viewBox="0 0 16 16" fill="none" xmlns="http://www.w3.org/2000/svg">
<g id="signal-full-02">
<path id="Vector" fill-rule="evenodd" clip-rule="evenodd" d="M3.30351 8.83337C3.31342 8.83337 3.32337 8.83337 3.33334 8.83337C3.34331 8.83337 3.35326 8.83337 3.36318 8.83337C3.65172 8.83337 3.91627 8.83331 4.13148 8.86224C4.36846 8.89411 4.61895 8.96904 4.82496 9.17511C5.03098 9.38111 5.10594 9.63157 5.13781 9.86857C5.16674 10.0838 5.16671 10.3483 5.16668 10.6369C5.16668 10.6468 5.16668 10.6568 5.16668 10.6667V11.3334C5.16668 11.3434 5.16668 11.3533 5.16668 11.3632C5.16671 11.6518 5.16674 11.9163 5.13781 12.1315C5.10594 12.3685 5.03098 12.619 4.82496 12.825C4.61895 13.031 4.36846 13.106 4.13148 13.1378C3.91627 13.1668 3.65172 13.1668 3.36317 13.1667C3.35326 13.1667 3.34331 13.1667 3.33334 13.1667C3.32337 13.1667 3.31343 13.1667 3.30351 13.1667C3.01497 13.1668 2.75041 13.1668 2.5352 13.1378C2.29822 13.106 2.04773 13.031 1.84172 12.825C1.6357 12.619 1.56074 12.3685 1.52888 12.1315C1.49994 11.9163 1.49997 11.6518 1.5 11.3632C1.50001 11.3533 1.50001 11.3434 1.50001 11.3334V10.6667C1.50001 10.6567 1.50001 10.6468 1.5 10.6369C1.49997 10.3483 1.49994 10.0838 1.52888 9.86857C1.56074 9.63157 1.6357 9.38111 1.84172 9.17511C2.04773 8.96904 2.29822 8.89411 2.5352 8.86224C2.75041 8.83331 3.01496 8.83337 3.30351 8.83337Z" fill="#EBFE64"/>
<path id="Vector_2" fill-rule="evenodd" clip-rule="evenodd" d="M7.97022 6.16663C7.98009 6.16663 7.99002 6.16663 8.00002 6.16663C8.01002 6.16663 8.01996 6.16663 8.02989 6.16663C8.31842 6.16659 8.58296 6.16657 8.79816 6.1955C9.03516 6.22736 9.28562 6.30233 9.49162 6.50834C9.69769 6.71436 9.77262 6.96483 9.80449 7.20183C9.83342 7.41703 9.83342 7.68156 9.83336 7.97016C9.83336 7.98003 9.83336 7.99003 9.83336 7.99996V11.3333C9.83336 11.3433 9.83336 11.3532 9.83336 11.3632C9.83342 11.6517 9.83342 11.9162 9.80449 12.1314C9.77262 12.3684 9.69769 12.6189 9.49162 12.8249C9.28562 13.031 9.03516 13.1059 8.79816 13.1378C8.58296 13.1667 8.31842 13.1667 8.02989 13.1666C8.01996 13.1666 8.01002 13.1666 8.00002 13.1666C7.99009 13.1666 7.98009 13.1666 7.97022 13.1666C7.68162 13.1667 7.41709 13.1667 7.20189 13.1378C6.96489 13.1059 6.71442 13.031 6.5084 12.8249C6.30239 12.6189 6.22742 12.3684 6.19556 12.1314C6.16663 11.9162 6.16666 11.6517 6.16669 11.3632C6.1667 11.3532 6.1667 11.3433 6.1667 11.3333V7.99996C6.1667 7.98996 6.1667 7.98003 6.16669 7.97016C6.16666 7.68156 6.16663 7.41703 6.19556 7.20183C6.22742 6.96483 6.30239 6.71436 6.5084 6.50834C6.71442 6.30233 6.96489 6.22736 7.20189 6.1955C7.41709 6.16657 7.68162 6.16659 7.97022 6.16663Z" fill="#EBFE64"/>
<path id="Vector_3" opacity="0.4" d="M12.6368 3.5L12.6666 3.50001L12.6965 3.5C12.985 3.49997 13.2496 3.49994 13.4648 3.52888C13.7018 3.56074 13.9522 3.6357 14.1582 3.84172C14.3643 4.04773 14.4392 4.29822 14.4711 4.5352C14.5 4.75041 14.5 5.01496 14.5 5.3035V5.33334V11.3632C14.5 11.6517 14.5 11.9163 14.4711 12.1315C14.4392 12.3685 14.3643 12.6189 14.1582 12.8249C13.9522 13.031 13.7018 13.1059 13.4648 13.1378C13.2496 13.1667 12.985 13.1667 12.6965 13.1667H12.6368C12.3482 13.1667 12.0837 13.1667 11.8685 13.1378C11.6315 13.1059 11.381 13.031 11.175 12.8249C10.969 12.6189 10.894 12.3685 10.8622 12.1315C10.8332 11.9163 10.8333 11.6517 10.8333 11.3632V5.33334V5.30351C10.8333 5.01496 10.8332 4.75041 10.8622 4.5352C10.894 4.29822 10.969 4.04773 11.175 3.84172C11.381 3.6357 11.6315 3.56074 11.8685 3.52888C12.0837 3.49994 12.3482 3.49997 12.6368 3.5Z" fill="#EBFE64"/>
</g>
</svg>
